<svg id="Laag_1" data-name="Laag 1" xmlns="http://www.w3.org/2000/svg" viewBox="0 0 539.99 89.21"><title>Normaal Gigue logo</title><path d="M105.9,315.32c-1.1,0-1.61.35-1.61,1.34v26.79c-.77-.08-.61-1.06-1.08-1.53-2-2.13-5.37-2-8-1.32-5.54,1.4-9.63,6.35-15.34,7.33-13,3.19-24.63-2.77-33-12.66-9.63-12.06-13.72-28.56-9.12-44,3-10.06,9-20.08,18.11-26.3,7.46-5.37,19.1-7.71,27.32-2.34,3.46,2.13,7.89,5.54,12,2.42a11.12,11.12,0,0,0,3.12-4.9c0-.34.35-.4.35,0l0,27.23h-.3c-3.28-9-7.45-18.26-16.06-24.44a20,20,0,0,0-13.68-2.43c-7.93,1.62-12.36,10-15.26,16.64-5.59,15.55-5.63,34.6-1.54,50.83,2.18,7.38,7,16.33,15,18.93,7.8,2,16,.17,21.69-5.54,1.66-1.62,3.25-4,3.31-5.59l0-19.25c0-1-.56-1.24-1.66-1.24H81.39s0-.81,0-.81l31.57,0c0,.05,0,.83,0,.83Z" transform="translate(-35.87 -259.58)"/><path d="M324.32,315.3c-1.1,0-1.61.35-1.61,1.34v26.79c-.76-.09-.61-1.07-1.07-1.53-2-2.14-5.37-2-8-1.33-5.54,1.41-9.64,6.35-15.35,7.33-12.95,3.2-24.63-2.77-33-12.65-9.63-12.06-13.72-28.56-9.12-44,3-10.05,9-20.07,18.12-26.29,7.46-5.37,19.09-7.72,27.32-2.35,3.45,2.13,7.88,5.54,12,2.43a11.17,11.17,0,0,0,3.12-4.9c0-.35.35-.41.35,0l0,27.23h-.29c-3.29-9-7.46-18-16.07-24.2A20.78,20.78,0,0,0,287,260.76c-7.93,1.62-12.36,9.79-15.26,16.4-5.58,15.55-5.63,34.59-1.53,50.83,2.17,7.38,7,16.33,15,18.93,7.8,2,16,.17,21.69-5.54,1.66-1.62,3.25-4,3.32-5.59l0-19.25c0-1-.56-1.25-1.66-1.24h-8.75s0-.81,0-.81l31.57,0s0,.83,0,.83Z" transform="translate(-35.87 -259.58)"/><path d="M185.54,262.23a2.23,2.23,0,0,1,1.29-1.26h7.39c-.05,0,0-1.15,0-1.11h0c0,.92-29.44,0-29.42,0a4.35,4.35,0,0,0,0,1.11h7.39c.51.17.78.37.86.83l.08,81.74a1.7,1.7,0,0,1-1.07,1.15h-7.39a4.81,4.81,0,0,0,0,1.1s29.43-.91,29.43,0h0s0-1.12,0-1.1H186.7a1.74,1.74,0,0,1-1.08-1.15Z" transform="translate(-35.87 -259.58)"/><path d="M455.52,260.86c-3.15.79-2.8,9.06-2.8,9.06v54.74c-.63,8.4-6.61,16.55-13.78,19.08-13.93,4.93-30.68,4.25-42.87-2.49-5.88-3.45-8.9-9.24-8.9-16.06V262.05a1.68,1.68,0,0,0-1.07-1.15h-7.39a4.87,4.87,0,0,1,0-1.11s29.43,0,29.43,0v.06c0-.05-.07,1.07,0,1H400.8a1.68,1.68,0,0,0-1.07,1.15l0,65.18c.12,6.82,6.26,13,12.53,15.56,9.36,3.57,19.59,3.42,28.3-1.15a21.43,21.43,0,0,0,11-18.07l0-53.74s.34-8.31-2.89-9h-6.1s0-1.13,0-1.08H461.1c0-.05,0,1.13,0,1.1Z" transform="translate(-35.87 -259.58)"/><path d="M551.63,318.44c-.09.22-.81,0-.81,0,0-5.51-10.06-17.47-13.41-17.56l-11.22,0,.08,39s0,3.16,2.15,3.16h22.43l.4,0c9.2-1.79,18.11-9.93,21.56-18.71a53.56,53.56,0,0,0,2-6.94,1.37,1.37,0,0,1,.94,0l.15,26.35c-.93-.16-72.18-.05-72.18-.05s-.13-.69.07-.69h7.09c1,0,2.22-.56,2.2-3.29V264.11c0-2.73-1.12-3.31-2.14-3.28h-7.1c-.19,0,0-.76-.06-.76s66.4,0,66.52-.05v18.5h-.59c-1.71-7.42-9.06-17.74-14.54-17.7H528.47c-2.28,0-2.26,2.94-2.26,2.94s0,36.46.06,36.57c0,0,11.21,0,11.14,0,3.34,0,13.56-10.24,13.5-17.27h.81Z" transform="translate(-35.87 -259.58)"/></svg>